<svg width="164" height="80" viewBox="0 0 164 80" fill="none" xmlns="http://www.w3.org/2000/svg">
<rect width="164" height="80" fill="white"/>
<path d="M23.7708 39.96C25.9894 39.96 27.7814 39.2133 29.1468 37.72C30.5548 36.2267 31.2588 34.3067 31.2588 31.96C31.2588 29.6133 30.5548 27.6933 29.1468 26.2C27.7814 24.7067 25.9894 23.96 23.7708 23.96H14.3628V39.96H23.7708ZM24.0908 15.64C27.3761 15.64 30.2988 16.344 32.8588 17.752C35.4188 19.1173 37.4028 21.0373 38.8108 23.512C40.2614 25.9867 40.9868 28.8027 40.9868 31.96C40.9868 35.1173 40.2614 37.9333 38.8108 40.408C37.4028 42.8827 35.4188 44.824 32.8588 46.232C30.2988 47.5973 27.3761 48.28 24.0908 48.28H14.3628V64.152H4.63475V15.64H24.0908ZM68.4518 56.216C71.4811 56.216 74.1051 55.5547 76.3238 54.232C78.5851 52.9093 80.3131 51.032 81.5078 48.6C82.7024 46.1253 83.2998 43.224 83.2998 39.896C83.2998 36.568 82.7024 33.688 81.5078 31.256C80.3131 28.7813 78.5851 26.8827 76.3238 25.56C74.1051 24.2373 71.4811 23.576 68.4518 23.576C65.4224 23.576 62.7771 24.2373 60.5158 25.56C58.2971 26.8827 56.5904 28.7813 55.3958 31.256C54.2011 33.688 53.6038 36.568 53.6038 39.896C53.6038 43.224 54.2011 46.1253 55.3958 48.6C56.5904 51.032 58.2971 52.9093 60.5158 54.232C62.7771 55.5547 65.4224 56.216 68.4518 56.216ZM68.4518 15.128C73.1878 15.128 77.4118 16.1947 81.1238 18.328C84.8784 20.4187 87.8011 23.3413 89.8918 27.096C91.9824 30.8507 93.0278 35.1173 93.0278 39.896C93.0278 44.6747 91.9824 48.9413 89.8918 52.696C87.8011 56.4507 84.8784 59.3947 81.1238 61.528C77.4118 63.6187 73.1878 64.664 68.4518 64.664C63.7158 64.664 59.4704 63.6187 55.7158 61.528C52.0038 59.3947 49.1024 56.4507 47.0118 52.696C44.9211 48.9413 43.8758 44.6747 43.8758 39.896C43.8758 35.1173 44.9211 30.8507 47.0118 27.096C49.1024 23.3413 52.0038 20.4187 55.7158 18.328C59.4704 16.1947 63.7158 15.128 68.4518 15.128ZM122.535 37.272L141.863 64.152H129.895L115.879 44.696L109.863 51.352V64.152H100.135V15.704H109.863V36.952L128.679 15.576H141.607L122.535 37.272ZM159.302 15.64V64.152H149.574V15.64H159.302Z" fill="black"/>
</svg>
