<svg width="24" height="24" viewBox="0 0 24 24" fill="none" xmlns="http://www.w3.org/2000/svg">
<path d="M12 12C14.7614 12 17 9.76142 17 7C17 4.23858 14.7614 2 12 2C9.23858 2 7 4.23858 7 7C7 9.76142 9.23858 12 12 12Z" stroke="#3A3A3A" stroke-width="1.5" stroke-linecap="round" stroke-linejoin="round"/>
<path d="M19.2091 15.741L15.669 19.281C15.529 19.421 15.3991 19.681 15.3691 19.871L15.1791 21.221C15.1091 21.711 15.4491 22.051 15.9391 21.981L17.289 21.791C17.479 21.761 17.7491 21.631 17.8791 21.491L21.419 17.951C22.029 17.341 22.319 16.631 21.419 15.731C20.529 14.841 19.8191 15.131 19.2091 15.741Z" stroke="#3A3A3A" stroke-width="1.5" stroke-miterlimit="10" stroke-linecap="round" stroke-linejoin="round"/>
<path d="M18.6992 16.25C18.9992 17.33 19.8392 18.17 20.9192 18.47" stroke="#3A3A3A" stroke-width="1.5" stroke-miterlimit="10" stroke-linecap="round" stroke-linejoin="round"/>
<path d="M3.41016 22C3.41016 18.13 7.26018 15 12.0002 15C13.0402 15 14.0402 15.15 14.9702 15.43" stroke="#3A3A3A" stroke-width="1.5" stroke-linecap="round" stroke-linejoin="round"/>
</svg>
